<?xml version="1.0" encoding="UTF-8" standalone="no"?>
<!DOCTYPE svg PUBLIC "-//W3C//DTD SVG 1.1//EN"
 "http://www.w3.org/Graphics/SVG/1.1/DTD/svg11.dtd">
<!-- Generated by graphviz version 2.42.4 (0)
 -->
<!-- Title: 11_usecase_quan_ly_thong_bao Pages: 1 -->
<svg width="394pt" height="376pt"
 viewBox="0.00 0.00 393.63 376.00" xmlns="http://www.w3.org/2000/svg" xmlns:xlink="http://www.w3.org/1999/xlink">
<g id="graph0" class="graph" transform="scale(1 1) rotate(0) translate(4 372)">
<title>11_usecase_quan_ly_thong_bao</title>
<polygon fill="white" stroke="transparent" points="-4,4 -4,-372 389.63,-372 389.63,4 -4,4"/>
<text text-anchor="middle" x="192.82" y="-349.6" font-family="Arial" font-size="18.00">Use Case quản lý thông báo</text>
<g id="clust1" class="cluster">
<title>cluster_sys</title>
<path fill="white" stroke="#7a9cc6" d="M138,-57C138,-57 373.63,-57 373.63,-57 379.63,-57 385.63,-63 385.63,-69 385.63,-69 385.63,-320 385.63,-320 385.63,-326 379.63,-332 373.63,-332 373.63,-332 138,-332 138,-332 132,-332 126,-326 126,-320 126,-320 126,-69 126,-69 126,-63 132,-57 138,-57"/>
<text text-anchor="middle" x="255.82" y="-313.6" font-family="Arial" font-size="18.00">VLearn English Center System</text>
</g>
<!-- Admin -->
<g id="node1" class="node">
<title>Admin</title>
<text text-anchor="middle" x="38" y="-210.2" font-family="Arial" font-size="11.00">Admin</text>
</g>
<!-- u1 -->
<g id="node5" class="node">
<title>u1</title>
<ellipse fill="#f5faff" stroke="#4a6fa5" cx="255.82" cy="-148" rx="51.93" ry="18"/>
<text text-anchor="middle" x="255.82" y="-145.2" font-family="Arial" font-size="11.00">Tạo thông báo</text>
</g>
<!-- Admin&#45;&gt;u1 -->
<g id="edge1" class="edge">
<title>Admin&#45;&gt;u1</title>
<path fill="none" stroke="black" d="M65.03,-202.64C82.2,-196 105.25,-187.45 126,-181 150.88,-173.26 178.86,-165.93 202.38,-160.15"/>
<polygon fill="black" stroke="black" points="203.27,-163.54 212.16,-157.77 201.61,-156.74 203.27,-163.54"/>
</g>
<!-- u2 -->
<g id="node6" class="node">
<title>u2</title>
<ellipse fill="#f5faff" stroke="#4a6fa5" cx="255.82" cy="-213" rx="67.2" ry="18"/>
<text text-anchor="middle" x="255.82" y="-210.2" font-family="Arial" font-size="11.00">Cập nhật thông báo</text>
</g>
<!-- Admin&#45;&gt;u2 -->
<g id="edge2" class="edge">
<title>Admin&#45;&gt;u2</title>
<path fill="none" stroke="black" d="M65.03,-213C92.98,-213 138.71,-213 178.27,-213"/>
<polygon fill="black" stroke="black" points="178.45,-216.5 188.45,-213 178.45,-209.5 178.45,-216.5"/>
</g>
<!-- u3 -->
<g id="node7" class="node">
<title>u3</title>
<ellipse fill="#f5faff" stroke="#4a6fa5" cx="255.82" cy="-278" rx="52.13" ry="18"/>
<text text-anchor="middle" x="255.82" y="-275.2" font-family="Arial" font-size="11.00">Xóa thông báo</text>
</g>
<!-- Admin&#45;&gt;u3 -->
<g id="edge3" class="edge">
<title>Admin&#45;&gt;u3</title>
<path fill="none" stroke="black" d="M65.37,-223.94C82.47,-230.8 105.34,-239.54 126,-246 150.43,-253.64 177.9,-260.67 201.19,-266.19"/>
<polygon fill="black" stroke="black" points="200.69,-269.67 211.23,-268.53 202.29,-262.85 200.69,-269.67"/>
</g>
<!-- u4 -->
<g id="node8" class="node">
<title>u4</title>
<ellipse fill="#f5faff" stroke="#4a6fa5" cx="255.82" cy="-83" rx="96.63" ry="18"/>
<text text-anchor="middle" x="255.82" y="-80.2" font-family="Arial" font-size="11.00">Xem thông báo theo audience</text>
</g>
<!-- Admin&#45;&gt;u4 -->
<g id="edge4" class="edge">
<title>Admin&#45;&gt;u4</title>
<path fill="none" stroke="black" d="M61.58,-194.75C66.51,-190.42 71.57,-185.69 76,-181 101.02,-154.5 95.57,-136.06 126,-116 138.73,-107.61 153.46,-101.35 168.32,-96.68"/>
<polygon fill="black" stroke="black" points="169.45,-100 178.08,-93.84 167.5,-93.28 169.45,-100"/>
</g>
<!-- Receptionist -->
<g id="node2" class="node">
<title>Receptionist</title>
<text text-anchor="middle" x="38" y="-145.2" font-family="Arial" font-size="11.00">Receptionist</text>
</g>
<!-- Receptionist&#45;&gt;u1 -->
<g id="edge5" class="edge">
<title>Receptionist&#45;&gt;u1</title>
<path fill="none" stroke="black" d="M76.1,-148C108.38,-148 155.79,-148 193.67,-148"/>
<polygon fill="black" stroke="black" points="194.08,-151.5 204.08,-148 194.08,-144.5 194.08,-151.5"/>
</g>
<!-- Receptionist&#45;&gt;u2 -->
<g id="edge6" class="edge">
<title>Receptionist&#45;&gt;u2</title>
<path fill="none" stroke="black" d="M76.34,-163.28C91.6,-169.23 109.5,-175.84 126,-181 147.74,-187.8 171.9,-194.12 193.36,-199.31"/>
<polygon fill="black" stroke="black" points="192.8,-202.78 203.34,-201.69 194.42,-195.97 192.8,-202.78"/>
</g>
<!-- Receptionist&#45;&gt;u4 -->
<g id="edge7" class="edge">
<title>Receptionist&#45;&gt;u4</title>
<path fill="none" stroke="black" d="M76.4,-133.3C91.66,-127.55 109.56,-121.12 126,-116 144.96,-110.1 165.72,-104.44 184.93,-99.53"/>
<polygon fill="black" stroke="black" points="185.98,-102.87 194.82,-97.03 184.26,-96.08 185.98,-102.87"/>
</g>
<!-- Teacher -->
<g id="node3" class="node">
<title>Teacher</title>
<text text-anchor="middle" x="38" y="-80.2" font-family="Arial" font-size="11.00">Teacher</text>
</g>
<!-- Teacher&#45;&gt;u4 -->
<g id="edge8" class="edge">
<title>Teacher&#45;&gt;u4</title>
<path fill="none" stroke="black" d="M65.9,-83C87.01,-83 117.88,-83 148.57,-83"/>
<polygon fill="black" stroke="black" points="148.96,-86.5 158.96,-83 148.96,-79.5 148.96,-86.5"/>
</g>
<!-- Student -->
<g id="node4" class="node">
<title>Student</title>
<text text-anchor="middle" x="38" y="-15.2" font-family="Arial" font-size="11.00">Student</text>
</g>
<!-- Student&#45;&gt;u4 -->
<g id="edge9" class="edge">
<title>Student&#45;&gt;u4</title>
<path fill="none" stroke="black" d="M65.03,-25.84C96.86,-35.43 151.74,-51.95 194.32,-64.78"/>
<polygon fill="black" stroke="black" points="193.45,-68.17 204.03,-67.7 195.47,-61.47 193.45,-68.17"/>
</g>
</g>
</svg>
