<?xml version="1.0" encoding="UTF-8" standalone="no"?>
<!DOCTYPE svg PUBLIC "-//W3C//DTD SVG 1.1//EN"
 "http://www.w3.org/Graphics/SVG/1.1/DTD/svg11.dtd">
<!-- Generated by graphviz version 2.42.4 (0)
 -->
<!-- Title: 14_usecase_quan_ly_giao_vien Pages: 1 -->
<svg width="372pt" height="327pt"
 viewBox="0.00 0.00 371.77 327.00" xmlns="http://www.w3.org/2000/svg" xmlns:xlink="http://www.w3.org/1999/xlink">
<g id="graph0" class="graph" transform="scale(1 1) rotate(0) translate(4 323)">
<title>14_usecase_quan_ly_giao_vien</title>
<polygon fill="white" stroke="transparent" points="-4,4 -4,-323 367.77,-323 367.77,4 -4,4"/>
<text text-anchor="middle" x="181.88" y="-300.6" font-family="Arial" font-size="18.00">Use Case quản lý giáo viên</text>
<g id="clust1" class="cluster">
<title>cluster_sys</title>
<path fill="white" stroke="#7a9cc6" d="M116,-8C116,-8 351.77,-8 351.77,-8 357.77,-8 363.77,-14 363.77,-20 363.77,-20 363.77,-271 363.77,-271 363.77,-277 357.77,-283 351.77,-283 351.77,-283 116,-283 116,-283 110,-283 104,-277 104,-271 104,-271 104,-20 104,-20 104,-14 110,-8 116,-8"/>
<text text-anchor="middle" x="233.88" y="-264.6" font-family="Arial" font-size="18.00">VLearn English Center System</text>
</g>
<!-- Admin -->
<g id="node1" class="node">
<title>Admin</title>
<text text-anchor="middle" x="27" y="-128.2" font-family="Arial" font-size="11.00">Admin</text>
</g>
<!-- u1 -->
<g id="node2" class="node">
<title>u1</title>
<ellipse fill="#f5faff" stroke="#4a6fa5" cx="233.38" cy="-229" rx="54.24" ry="18"/>
<text text-anchor="middle" x="233.38" y="-226.2" font-family="Arial" font-size="11.00">Thêm giáo viên</text>
</g>
<!-- Admin&#45;&gt;u1 -->
<g id="edge1" class="edge">
<title>Admin&#45;&gt;u1</title>
<path fill="none" stroke="black" d="M44.05,-149.06C58.36,-164.05 80.59,-184.82 104,-197 125.21,-208.03 150.39,-215.38 172.8,-220.22"/>
<polygon fill="black" stroke="black" points="172.39,-223.71 182.89,-222.27 173.78,-216.85 172.39,-223.71"/>
</g>
<!-- u2 -->
<g id="node3" class="node">
<title>u2</title>
<ellipse fill="#f5faff" stroke="#4a6fa5" cx="233.38" cy="-164" rx="82.27" ry="18"/>
<text text-anchor="middle" x="233.38" y="-161.2" font-family="Arial" font-size="11.00">Cập nhật hồ sơ giáo viên</text>
</g>
<!-- Admin&#45;&gt;u2 -->
<g id="edge2" class="edge">
<title>Admin&#45;&gt;u2</title>
<path fill="none" stroke="black" d="M54.3,-135.25C80.12,-139.42 120.75,-145.98 156.68,-151.78"/>
<polygon fill="black" stroke="black" points="156.25,-155.25 166.68,-153.39 157.36,-148.34 156.25,-155.25"/>
</g>
<!-- u3 -->
<g id="node4" class="node">
<title>u3</title>
<ellipse fill="#f5faff" stroke="#4a6fa5" cx="233.38" cy="-99" rx="46.81" ry="18"/>
<text text-anchor="middle" x="233.38" y="-96.2" font-family="Arial" font-size="11.00">Xem lịch dạy</text>
</g>
<!-- Admin&#45;&gt;u3 -->
<g id="edge3" class="edge">
<title>Admin&#45;&gt;u3</title>
<path fill="none" stroke="black" d="M54.3,-126.88C85.81,-121.95 139.36,-113.56 179.53,-107.27"/>
<polygon fill="black" stroke="black" points="180.1,-110.73 189.44,-105.72 179.02,-103.81 180.1,-110.73"/>
</g>
<!-- u4 -->
<g id="node5" class="node">
<title>u4</title>
<ellipse fill="#f5faff" stroke="#4a6fa5" cx="233.38" cy="-34" rx="75.33" ry="18"/>
<text text-anchor="middle" x="233.38" y="-31.2" font-family="Arial" font-size="11.00">Theo dõi lớp phụ trách</text>
</g>
<!-- Admin&#45;&gt;u4 -->
<g id="edge4" class="edge">
<title>Admin&#45;&gt;u4</title>
<path fill="none" stroke="black" d="M44.76,-112.97C59.15,-98.52 81.15,-78.77 104,-67 121.51,-57.98 141.66,-51.3 160.73,-46.41"/>
<polygon fill="black" stroke="black" points="161.69,-49.78 170.58,-44.01 160.04,-42.98 161.69,-49.78"/>
</g>
</g>
</svg>
