<?xml version="1.0" encoding="UTF-8" standalone="no"?>
<!DOCTYPE svg PUBLIC "-//W3C//DTD SVG 1.1//EN"
 "http://www.w3.org/Graphics/SVG/1.1/DTD/svg11.dtd">
<!-- Generated by graphviz version 2.42.4 (0)
 -->
<!-- Title: 15_usecase_quan_ly_ket_qua_hoc_tap Pages: 1 -->
<svg width="393pt" height="327pt"
 viewBox="0.00 0.00 393.32 327.00" xmlns="http://www.w3.org/2000/svg" xmlns:xlink="http://www.w3.org/1999/xlink">
<g id="graph0" class="graph" transform="scale(1 1) rotate(0) translate(4 323)">
<title>15_usecase_quan_ly_ket_qua_hoc_tap</title>
<polygon fill="white" stroke="transparent" points="-4,4 -4,-323 389.32,-323 389.32,4 -4,4"/>
<text text-anchor="middle" x="192.66" y="-300.6" font-family="Arial" font-size="18.00">Use Case quản lý kết quả học tập</text>
<g id="clust1" class="cluster">
<title>cluster_sys</title>
<path fill="white" stroke="#7a9cc6" d="M138,-8C138,-8 373.32,-8 373.32,-8 379.32,-8 385.32,-14 385.32,-20 385.32,-20 385.32,-271 385.32,-271 385.32,-277 379.32,-283 373.32,-283 373.32,-283 138,-283 138,-283 132,-283 126,-277 126,-271 126,-271 126,-20 126,-20 126,-14 132,-8 138,-8"/>
<text text-anchor="middle" x="255.66" y="-264.6" font-family="Arial" font-size="18.00">VLearn English Center System</text>
</g>
<!-- Admin -->
<g id="node1" class="node">
<title>Admin</title>
<text text-anchor="middle" x="38" y="-161.2" font-family="Arial" font-size="11.00">Admin</text>
</g>
<!-- u1 -->
<g id="node5" class="node">
<title>u1</title>
<ellipse fill="#f5faff" stroke="#4a6fa5" cx="255.16" cy="-164" rx="48.92" ry="18"/>
<text text-anchor="middle" x="255.16" y="-161.2" font-family="Arial" font-size="11.00">Nhập kết quả</text>
</g>
<!-- Admin&#45;&gt;u1 -->
<g id="edge1" class="edge">
<title>Admin&#45;&gt;u1</title>
<path fill="none" stroke="black" d="M65.38,-164C97.73,-164 153.48,-164 196.04,-164"/>
<polygon fill="black" stroke="black" points="196.28,-167.5 206.28,-164 196.28,-160.5 196.28,-167.5"/>
</g>
<!-- u2 -->
<g id="node6" class="node">
<title>u2</title>
<ellipse fill="#f5faff" stroke="#4a6fa5" cx="255.16" cy="-99" rx="59.56" ry="18"/>
<text text-anchor="middle" x="255.16" y="-96.2" font-family="Arial" font-size="11.00">Cập nhật kết quả</text>
</g>
<!-- Admin&#45;&gt;u2 -->
<g id="edge2" class="edge">
<title>Admin&#45;&gt;u2</title>
<path fill="none" stroke="black" d="M65.03,-153.65C82.2,-147.01 105.26,-138.47 126,-132 149.11,-124.79 174.91,-117.93 197.26,-112.35"/>
<polygon fill="black" stroke="black" points="198.4,-115.67 207.27,-109.87 196.73,-108.87 198.4,-115.67"/>
</g>
<!-- u3 -->
<g id="node7" class="node">
<title>u3</title>
<ellipse fill="#f5faff" stroke="#4a6fa5" cx="255.16" cy="-229" rx="72.32" ry="18"/>
<text text-anchor="middle" x="255.16" y="-226.2" font-family="Arial" font-size="11.00">Xem kết quả theo lớp</text>
</g>
<!-- Admin&#45;&gt;u3 -->
<g id="edge3" class="edge">
<title>Admin&#45;&gt;u3</title>
<path fill="none" stroke="black" d="M65.37,-174.93C82.47,-181.79 105.34,-190.53 126,-197 146.88,-203.54 169.99,-209.65 190.77,-214.74"/>
<polygon fill="black" stroke="black" points="190.23,-218.21 200.77,-217.16 191.87,-211.41 190.23,-218.21"/>
</g>
<!-- Receptionist -->
<g id="node2" class="node">
<title>Receptionist</title>
<text text-anchor="middle" x="38" y="-226.2" font-family="Arial" font-size="11.00">Receptionist</text>
</g>
<!-- Receptionist&#45;&gt;u3 -->
<g id="edge4" class="edge">
<title>Receptionist&#45;&gt;u3</title>
<path fill="none" stroke="black" d="M76.48,-229C102.99,-229 139.57,-229 172.65,-229"/>
<polygon fill="black" stroke="black" points="172.79,-232.5 182.79,-229 172.79,-225.5 172.79,-232.5"/>
</g>
<!-- Teacher -->
<g id="node3" class="node">
<title>Teacher</title>
<text text-anchor="middle" x="38" y="-96.2" font-family="Arial" font-size="11.00">Teacher</text>
</g>
<!-- Teacher&#45;&gt;u1 -->
<g id="edge5" class="edge">
<title>Teacher&#45;&gt;u1</title>
<path fill="none" stroke="black" d="M65.75,-110.09C82.82,-116.92 105.5,-125.58 126,-132 151.08,-139.86 179.4,-147.1 203.02,-152.69"/>
<polygon fill="black" stroke="black" points="202.3,-156.12 212.84,-154.99 203.9,-149.3 202.3,-156.12"/>
</g>
<!-- Teacher&#45;&gt;u2 -->
<g id="edge6" class="edge">
<title>Teacher&#45;&gt;u2</title>
<path fill="none" stroke="black" d="M65.82,-99C95.52,-99 144.57,-99 185.17,-99"/>
<polygon fill="black" stroke="black" points="185.3,-102.5 195.3,-99 185.3,-95.5 185.3,-102.5"/>
</g>
<!-- Teacher&#45;&gt;u3 -->
<g id="edge7" class="edge">
<title>Teacher&#45;&gt;u3</title>
<path fill="none" stroke="black" d="M60.77,-117.2C65.94,-121.84 71.31,-126.96 76,-132 100.82,-158.69 95.51,-177.03 126,-197 141.94,-207.44 161.02,-214.47 179.54,-219.21"/>
<polygon fill="black" stroke="black" points="178.91,-222.66 189.45,-221.55 180.52,-215.85 178.91,-222.66"/>
</g>
<!-- Student -->
<g id="node4" class="node">
<title>Student</title>
<text text-anchor="middle" x="38" y="-31.2" font-family="Arial" font-size="11.00">Student</text>
</g>
<!-- u4 -->
<g id="node8" class="node">
<title>u4</title>
<ellipse fill="#f5faff" stroke="#4a6fa5" cx="255.16" cy="-34" rx="71.62" ry="18"/>
<text text-anchor="middle" x="255.16" y="-31.2" font-family="Arial" font-size="11.00">Xem kết quả cá nhân</text>
</g>
<!-- Student&#45;&gt;u4 -->
<g id="edge8" class="edge">
<title>Student&#45;&gt;u4</title>
<path fill="none" stroke="black" d="M65.38,-34C92.17,-34 135,-34 173.1,-34"/>
<polygon fill="black" stroke="black" points="173.19,-37.5 183.19,-34 173.19,-30.5 173.19,-37.5"/>
</g>
</g>
</svg>
