<?xml version="1.0" encoding="UTF-8" standalone="no"?>
<!DOCTYPE svg PUBLIC "-//W3C//DTD SVG 1.1//EN"
 "http://www.w3.org/Graphics/SVG/1.1/DTD/svg11.dtd">
<!-- Generated by graphviz version 2.42.4 (0)
 -->
<!-- Title: 28_sequence_xoa_lop_hoc Pages: 1 -->
<svg width="596pt" height="364pt"
 viewBox="0.00 0.00 596.00 364.04" xmlns="http://www.w3.org/2000/svg" xmlns:xlink="http://www.w3.org/1999/xlink">
<g id="graph0" class="graph" transform="scale(1 1) rotate(0) translate(4 360.04)">
<title>28_sequence_xoa_lop_hoc</title>
<polygon fill="white" stroke="transparent" points="-4,4 -4,-360.04 592,-360.04 592,4 -4,4"/>
<text text-anchor="middle" x="294" y="-337.64" font-family="Arial" font-size="18.00">Biểu đồ tuần tự xóa lớp học</text>
<!-- Admin_head -->
<g id="node1" class="node">
<title>Admin_head</title>
<path fill="#f5faff" stroke="black" d="M42,-328.04C42,-328.04 12,-328.04 12,-328.04 6,-328.04 0,-322.04 0,-316.04 0,-316.04 0,-304.04 0,-304.04 0,-298.04 6,-292.04 12,-292.04 12,-292.04 42,-292.04 42,-292.04 48,-292.04 54,-298.04 54,-304.04 54,-304.04 54,-316.04 54,-316.04 54,-322.04 48,-328.04 42,-328.04"/>
<text text-anchor="middle" x="27" y="-307.54" font-family="Arial" font-size="10.00">Admin</text>
</g>
<!-- Admin_0 -->
<g id="node6" class="node">
<title>Admin_0</title>
<ellipse fill="#f5faff" stroke="transparent" cx="27" cy="-250.68" rx="0.36" ry="0.36"/>
</g>
<!-- Admin_head&#45;&gt;Admin_0 -->
<g id="edge1" class="edge">
<title>Admin_head&#45;&gt;Admin_0</title>
<path fill="none" stroke="#9a9a9a" stroke-dasharray="5,2" d="M27,-291.95C27,-275.38 27,-252.52 27,-251.11"/>
</g>
<!-- Frontend_head -->
<g id="node2" class="node">
<title>Frontend_head</title>
<path fill="#f5faff" stroke="black" d="M157.5,-328.04C157.5,-328.04 126.5,-328.04 126.5,-328.04 120.5,-328.04 114.5,-322.04 114.5,-316.04 114.5,-316.04 114.5,-304.04 114.5,-304.04 114.5,-298.04 120.5,-292.04 126.5,-292.04 126.5,-292.04 157.5,-292.04 157.5,-292.04 163.5,-292.04 169.5,-298.04 169.5,-304.04 169.5,-304.04 169.5,-316.04 169.5,-316.04 169.5,-322.04 163.5,-328.04 157.5,-328.04"/>
<text text-anchor="middle" x="142" y="-307.54" font-family="Arial" font-size="10.00">Frontend</text>
</g>
<!-- Frontend_0 -->
<g id="node7" class="node">
<title>Frontend_0</title>
<ellipse fill="#f5faff" stroke="transparent" cx="142" cy="-250.68" rx="0.36" ry="0.36"/>
</g>
<!-- Frontend_head&#45;&gt;Frontend_0 -->
<g id="edge8" class="edge">
<title>Frontend_head&#45;&gt;Frontend_0</title>
<path fill="none" stroke="#9a9a9a" stroke-dasharray="5,2" d="M142,-291.95C142,-275.38 142,-252.52 142,-251.11"/>
</g>
<!-- ClassController_head -->
<g id="node3" class="node">
<title>ClassController_head</title>
<path fill="#f5faff" stroke="black" d="M324,-328.04C324,-328.04 264,-328.04 264,-328.04 258,-328.04 252,-322.04 252,-316.04 252,-316.04 252,-304.04 252,-304.04 252,-298.04 258,-292.04 264,-292.04 264,-292.04 324,-292.04 324,-292.04 330,-292.04 336,-298.04 336,-304.04 336,-304.04 336,-316.04 336,-316.04 336,-322.04 330,-328.04 324,-328.04"/>
<text text-anchor="middle" x="294" y="-307.54" font-family="Arial" font-size="10.00">ClassController</text>
</g>
<!-- ClassController_0 -->
<g id="node8" class="node">
<title>ClassController_0</title>
<ellipse fill="#f5faff" stroke="transparent" cx="294" cy="-250.68" rx="0.36" ry="0.36"/>
</g>
<!-- ClassController_head&#45;&gt;ClassController_0 -->
<g id="edge15" class="edge">
<title>ClassController_head&#45;&gt;ClassController_0</title>
<path fill="none" stroke="#9a9a9a" stroke-dasharray="5,2" d="M294,-291.95C294,-275.38 294,-252.52 294,-251.11"/>
</g>
<!-- EnrollmentModel_head -->
<g id="node4" class="node">
<title>EnrollmentModel_head</title>
<path fill="#f5faff" stroke="black" d="M475.5,-328.04C475.5,-328.04 410.5,-328.04 410.5,-328.04 404.5,-328.04 398.5,-322.04 398.5,-316.04 398.5,-316.04 398.5,-304.04 398.5,-304.04 398.5,-298.04 404.5,-292.04 410.5,-292.04 410.5,-292.04 475.5,-292.04 475.5,-292.04 481.5,-292.04 487.5,-298.04 487.5,-304.04 487.5,-304.04 487.5,-316.04 487.5,-316.04 487.5,-322.04 481.5,-328.04 475.5,-328.04"/>
<text text-anchor="middle" x="443" y="-307.54" font-family="Arial" font-size="10.00">EnrollmentModel</text>
</g>
<!-- EnrollmentModel_0 -->
<g id="node9" class="node">
<title>EnrollmentModel_0</title>
<ellipse fill="#f5faff" stroke="transparent" cx="444" cy="-250.68" rx="0.36" ry="0.36"/>
</g>
<!-- EnrollmentModel_head&#45;&gt;EnrollmentModel_0 -->
<g id="edge22" class="edge">
<title>EnrollmentModel_head&#45;&gt;EnrollmentModel_0</title>
<path fill="none" stroke="#9a9a9a" stroke-dasharray="5,2" d="M443.29,-291.95C443.58,-275.38 443.97,-252.52 444,-251.11"/>
</g>
<!-- ClassModel_head -->
<g id="node5" class="node">
<title>ClassModel_head</title>
<path fill="#f5faff" stroke="black" d="M576,-328.04C576,-328.04 532,-328.04 532,-328.04 526,-328.04 520,-322.04 520,-316.04 520,-316.04 520,-304.04 520,-304.04 520,-298.04 526,-292.04 532,-292.04 532,-292.04 576,-292.04 576,-292.04 582,-292.04 588,-298.04 588,-304.04 588,-304.04 588,-316.04 588,-316.04 588,-322.04 582,-328.04 576,-328.04"/>
<text text-anchor="middle" x="554" y="-307.54" font-family="Arial" font-size="10.00">ClassModel</text>
</g>
<!-- ClassModel_0 -->
<g id="node10" class="node">
<title>ClassModel_0</title>
<ellipse fill="#f5faff" stroke="transparent" cx="544" cy="-250.68" rx="0.36" ry="0.36"/>
</g>
<!-- ClassModel_head&#45;&gt;ClassModel_0 -->
<g id="edge29" class="edge">
<title>ClassModel_head&#45;&gt;ClassModel_0</title>
<path fill="none" stroke="#9a9a9a" stroke-dasharray="5,2" d="M551.05,-291.95C548.2,-275.38 544.26,-252.52 544.01,-251.11"/>
</g>
<!-- Admin_0&#45;&gt;Frontend_0 -->
<g id="edge36" class="edge">
<title>Admin_0&#45;&gt;Frontend_0</title>
<path fill="none" stroke="#2f5d8a" d="M27.73,-250.68C35.57,-250.68 104.08,-250.68 131.1,-250.68"/>
<polygon fill="#2f5d8a" stroke="#2f5d8a" points="131.33,-254.18 141.33,-250.68 131.33,-247.18 131.33,-254.18"/>
<text text-anchor="middle" x="84.5" y="-256.68" font-family="Arial" font-size="10.00">1. Yêu cầu xóa lớp</text>
</g>
<!-- Admin_1 -->
<g id="node11" class="node">
<title>Admin_1</title>
<ellipse fill="#f5faff" stroke="transparent" cx="27" cy="-208.96" rx="0.36" ry="0.36"/>
</g>
<!-- Admin_0&#45;&gt;Admin_1 -->
<g id="edge2" class="edge">
<title>Admin_0&#45;&gt;Admin_1</title>
<path fill="none" stroke="#9a9a9a" stroke-dasharray="5,2" d="M27,-250.2C27,-247.87 27,-211.69 27,-209.43"/>
</g>
<!-- Frontend_1 -->
<g id="node12" class="node">
<title>Frontend_1</title>
<ellipse fill="#f5faff" stroke="transparent" cx="142" cy="-208.96" rx="0.36" ry="0.36"/>
</g>
<!-- Frontend_0&#45;&gt;Frontend_1 -->
<g id="edge9" class="edge">
<title>Frontend_0&#45;&gt;Frontend_1</title>
<path fill="none" stroke="#9a9a9a" stroke-dasharray="5,2" d="M142,-250.2C142,-247.87 142,-211.69 142,-209.43"/>
</g>
<!-- ClassController_1 -->
<g id="node13" class="node">
<title>ClassController_1</title>
<ellipse fill="#f5faff" stroke="transparent" cx="294" cy="-208.96" rx="0.36" ry="0.36"/>
</g>
<!-- ClassController_0&#45;&gt;ClassController_1 -->
<g id="edge16" class="edge">
<title>ClassController_0&#45;&gt;ClassController_1</title>
<path fill="none" stroke="#9a9a9a" stroke-dasharray="5,2" d="M294,-250.2C294,-247.87 294,-211.69 294,-209.43"/>
</g>
<!-- EnrollmentModel_1 -->
<g id="node14" class="node">
<title>EnrollmentModel_1</title>
<ellipse fill="#f5faff" stroke="transparent" cx="460" cy="-208.96" rx="0.36" ry="0.36"/>
</g>
<!-- EnrollmentModel_0&#45;&gt;EnrollmentModel_1 -->
<g id="edge23" class="edge">
<title>EnrollmentModel_0&#45;&gt;EnrollmentModel_1</title>
<path fill="none" stroke="#9a9a9a" stroke-dasharray="5,2" d="M444.05,-250.2C444.96,-247.87 459.08,-211.69 459.96,-209.43"/>
</g>
<!-- ClassModel_1 -->
<g id="node15" class="node">
<title>ClassModel_1</title>
<ellipse fill="#f5faff" stroke="transparent" cx="515" cy="-208.96" rx="0.36" ry="0.36"/>
</g>
<!-- ClassModel_0&#45;&gt;ClassModel_1 -->
<g id="edge30" class="edge">
<title>ClassModel_0&#45;&gt;ClassModel_1</title>
<path fill="none" stroke="#9a9a9a" stroke-dasharray="5,2" d="M543.92,-250.2C542.27,-247.87 516.68,-211.69 515.08,-209.43"/>
</g>
<!-- Admin_2 -->
<g id="node16" class="node">
<title>Admin_2</title>
<ellipse fill="#f5faff" stroke="transparent" cx="27" cy="-167.24" rx="0.36" ry="0.36"/>
</g>
<!-- Admin_1&#45;&gt;Admin_2 -->
<g id="edge3" class="edge">
<title>Admin_1&#45;&gt;Admin_2</title>
<path fill="none" stroke="#9a9a9a" stroke-dasharray="5,2" d="M27,-208.48C27,-206.15 27,-169.97 27,-167.71"/>
</g>
<!-- Frontend_1&#45;&gt;ClassController_1 -->
<g id="edge37" class="edge">
<title>Frontend_1&#45;&gt;ClassController_1</title>
<path fill="none" stroke="#2f5d8a" d="M142.44,-208.96C149.86,-208.96 249.97,-208.96 283.29,-208.96"/>
<polygon fill="#2f5d8a" stroke="#2f5d8a" points="283.59,-212.46 293.59,-208.96 283.59,-205.46 283.59,-212.46"/>
<text text-anchor="middle" x="218" y="-214.96" font-family="Arial" font-size="10.00">2. DELETE /api/classes/:id</text>
</g>
<!-- Frontend_2 -->
<g id="node17" class="node">
<title>Frontend_2</title>
<ellipse fill="#f5faff" stroke="transparent" cx="166" cy="-167.24" rx="0.36" ry="0.36"/>
</g>
<!-- Frontend_1&#45;&gt;Frontend_2 -->
<g id="edge10" class="edge">
<title>Frontend_1&#45;&gt;Frontend_2</title>
<path fill="none" stroke="#9a9a9a" stroke-dasharray="5,2" d="M142.07,-208.48C143.43,-206.15 164.61,-169.97 165.94,-167.71"/>
</g>
<!-- ClassController_2 -->
<g id="node18" class="node">
<title>ClassController_2</title>
<ellipse fill="#f5faff" stroke="transparent" cx="286" cy="-167.24" rx="0.36" ry="0.36"/>
</g>
<!-- ClassController_1&#45;&gt;ClassController_2 -->
<g id="edge17" class="edge">
<title>ClassController_1&#45;&gt;ClassController_2</title>
<path fill="none" stroke="#9a9a9a" stroke-dasharray="5,2" d="M293.98,-208.48C293.52,-206.15 286.46,-169.97 286.02,-167.71"/>
</g>
<!-- EnrollmentModel_2 -->
<g id="node19" class="node">
<title>EnrollmentModel_2</title>
<ellipse fill="#f5faff" stroke="transparent" cx="466" cy="-167.24" rx="0.36" ry="0.36"/>
</g>
<!-- EnrollmentModel_1&#45;&gt;EnrollmentModel_2 -->
<g id="edge24" class="edge">
<title>EnrollmentModel_1&#45;&gt;EnrollmentModel_2</title>
<path fill="none" stroke="#9a9a9a" stroke-dasharray="5,2" d="M460.02,-208.48C460.36,-206.15 465.65,-169.97 465.98,-167.71"/>
</g>
<!-- ClassModel_2 -->
<g id="node20" class="node">
<title>ClassModel_2</title>
<ellipse fill="#f5faff" stroke="transparent" cx="505" cy="-167.24" rx="0.36" ry="0.36"/>
</g>
<!-- ClassModel_1&#45;&gt;ClassModel_2 -->
<g id="edge31" class="edge">
<title>ClassModel_1&#45;&gt;ClassModel_2</title>
<path fill="none" stroke="#9a9a9a" stroke-dasharray="5,2" d="M514.97,-208.48C514.4,-206.15 505.58,-169.97 505.03,-167.71"/>
</g>
<!-- Admin_3 -->
<g id="node21" class="node">
<title>Admin_3</title>
<ellipse fill="#f5faff" stroke="transparent" cx="27" cy="-125.52" rx="0.36" ry="0.36"/>
</g>
<!-- Admin_2&#45;&gt;Admin_3 -->
<g id="edge4" class="edge">
<title>Admin_2&#45;&gt;Admin_3</title>
<path fill="none" stroke="#9a9a9a" stroke-dasharray="5,2" d="M27,-166.76C27,-164.43 27,-128.25 27,-125.99"/>
</g>
<!-- Frontend_3 -->
<g id="node22" class="node">
<title>Frontend_3</title>
<ellipse fill="#f5faff" stroke="transparent" cx="214" cy="-125.52" rx="0.36" ry="0.36"/>
</g>
<!-- Frontend_2&#45;&gt;Frontend_3 -->
<g id="edge11" class="edge">
<title>Frontend_2&#45;&gt;Frontend_3</title>
<path fill="none" stroke="#9a9a9a" stroke-dasharray="5,2" d="M166.14,-166.76C168.87,-164.43 211.23,-128.25 213.87,-125.99"/>
</g>
<!-- ClassController_2&#45;&gt;EnrollmentModel_2 -->
<g id="edge38" class="edge">
<title>ClassController_2&#45;&gt;EnrollmentModel_2</title>
<path fill="none" stroke="#2f5d8a" d="M286.52,-167.24C295.47,-167.24 418.21,-167.24 455.4,-167.24"/>
<polygon fill="#2f5d8a" stroke="#2f5d8a" points="455.52,-170.74 465.52,-167.24 455.52,-163.74 455.52,-170.74"/>
<text text-anchor="middle" x="376" y="-173.24" font-family="Arial" font-size="10.00">3. Kiểm tra ràng buộc / enrollment</text>
</g>
<!-- ClassController_3 -->
<g id="node23" class="node">
<title>ClassController_3</title>
<ellipse fill="#f5faff" stroke="transparent" cx="384" cy="-125.52" rx="0.36" ry="0.36"/>
</g>
<!-- ClassController_2&#45;&gt;ClassController_3 -->
<g id="edge18" class="edge">
<title>ClassController_2&#45;&gt;ClassController_3</title>
<path fill="none" stroke="#9a9a9a" stroke-dasharray="5,2" d="M286.07,-166.85C288.99,-165.63 381.05,-127.11 383.93,-125.91"/>
</g>
<!-- EnrollmentModel_3 -->
<g id="node24" class="node">
<title>EnrollmentModel_3</title>
<ellipse fill="#f5faff" stroke="transparent" cx="268" cy="-125.52" rx="0.36" ry="0.36"/>
</g>
<!-- EnrollmentModel_2&#45;&gt;EnrollmentModel_3 -->
<g id="edge25" class="edge">
<title>EnrollmentModel_2&#45;&gt;EnrollmentModel_3</title>
<path fill="none" stroke="#9a9a9a" stroke-dasharray="5,2" d="M465.86,-166.85C459.95,-165.63 273.95,-127.11 268.14,-125.91"/>
</g>
<!-- ClassModel_3 -->
<g id="node25" class="node">
<title>ClassModel_3</title>
<ellipse fill="#f5faff" stroke="transparent" cx="504" cy="-125.52" rx="0.36" ry="0.36"/>
</g>
<!-- ClassModel_2&#45;&gt;ClassModel_3 -->
<g id="edge32" class="edge">
<title>ClassModel_2&#45;&gt;ClassModel_3</title>
<path fill="none" stroke="#9a9a9a" stroke-dasharray="5,2" d="M505,-166.76C504.94,-164.43 504.06,-128.25 504,-125.99"/>
</g>
<!-- Admin_4 -->
<g id="node26" class="node">
<title>Admin_4</title>
<ellipse fill="#f5faff" stroke="transparent" cx="27" cy="-83.8" rx="0.36" ry="0.36"/>
</g>
<!-- Admin_3&#45;&gt;Admin_4 -->
<g id="edge5" class="edge">
<title>Admin_3&#45;&gt;Admin_4</title>
<path fill="none" stroke="#9a9a9a" stroke-dasharray="5,2" d="M27,-125.04C27,-122.71 27,-86.53 27,-84.27"/>
</g>
<!-- Frontend_4 -->
<g id="node27" class="node">
<title>Frontend_4</title>
<ellipse fill="#f5faff" stroke="transparent" cx="226" cy="-83.8" rx="0.36" ry="0.36"/>
</g>
<!-- Frontend_3&#45;&gt;Frontend_4 -->
<g id="edge12" class="edge">
<title>Frontend_3&#45;&gt;Frontend_4</title>
<path fill="none" stroke="#9a9a9a" stroke-dasharray="5,2" d="M214.03,-125.04C214.72,-122.71 225.31,-86.53 225.97,-84.27"/>
</g>
<!-- ClassController_4 -->
<g id="node28" class="node">
<title>ClassController_4</title>
<ellipse fill="#f5faff" stroke="transparent" cx="384" cy="-83.8" rx="0.36" ry="0.36"/>
</g>
<!-- ClassController_3&#45;&gt;ClassController_4 -->
<g id="edge19" class="edge">
<title>ClassController_3&#45;&gt;ClassController_4</title>
<path fill="none" stroke="#9a9a9a" stroke-dasharray="5,2" d="M384,-125.04C384,-122.71 384,-86.53 384,-84.27"/>
</g>
<!-- EnrollmentModel_3&#45;&gt;ClassController_3 -->
<g id="edge39" class="edge">
<title>EnrollmentModel_3&#45;&gt;ClassController_3</title>
<path fill="none" stroke="#2f5d8a" d="M268.74,-125.52C276.65,-125.52 345.75,-125.52 373.01,-125.52"/>
<polygon fill="#2f5d8a" stroke="#2f5d8a" points="373.33,-129.02 383.33,-125.52 373.33,-122.02 373.33,-129.02"/>
<text text-anchor="middle" x="326" y="-131.52" font-family="Arial" font-size="10.00">4. Kết quả kiểm tra</text>
</g>
<!-- EnrollmentModel_4 -->
<g id="node29" class="node">
<title>EnrollmentModel_4</title>
<ellipse fill="#f5faff" stroke="transparent" cx="268" cy="-83.8" rx="0.36" ry="0.36"/>
</g>
<!-- EnrollmentModel_3&#45;&gt;EnrollmentModel_4 -->
<g id="edge26" class="edge">
<title>EnrollmentModel_3&#45;&gt;EnrollmentModel_4</title>
<path fill="none" stroke="#9a9a9a" stroke-dasharray="5,2" d="M268,-125.04C268,-122.71 268,-86.53 268,-84.27"/>
</g>
<!-- ClassModel_4 -->
<g id="node30" class="node">
<title>ClassModel_4</title>
<ellipse fill="#f5faff" stroke="transparent" cx="503" cy="-83.8" rx="0.36" ry="0.36"/>
</g>
<!-- ClassModel_3&#45;&gt;ClassModel_4 -->
<g id="edge33" class="edge">
<title>ClassModel_3&#45;&gt;ClassModel_4</title>
<path fill="none" stroke="#9a9a9a" stroke-dasharray="5,2" d="M504,-125.04C503.94,-122.71 503.06,-86.53 503,-84.27"/>
</g>
<!-- Admin_5 -->
<g id="node31" class="node">
<title>Admin_5</title>
<ellipse fill="#f5faff" stroke="transparent" cx="27" cy="-42.08" rx="0.36" ry="0.36"/>
</g>
<!-- Admin_4&#45;&gt;Admin_5 -->
<g id="edge6" class="edge">
<title>Admin_4&#45;&gt;Admin_5</title>
<path fill="none" stroke="#9a9a9a" stroke-dasharray="5,2" d="M27,-83.32C27,-80.99 27,-44.81 27,-42.55"/>
</g>
<!-- Frontend_5 -->
<g id="node32" class="node">
<title>Frontend_5</title>
<ellipse fill="#f5faff" stroke="transparent" cx="228" cy="-42.08" rx="0.36" ry="0.36"/>
</g>
<!-- Frontend_4&#45;&gt;Frontend_5 -->
<g id="edge13" class="edge">
<title>Frontend_4&#45;&gt;Frontend_5</title>
<path fill="none" stroke="#9a9a9a" stroke-dasharray="5,2" d="M226.01,-83.32C226.12,-80.99 227.88,-44.81 227.99,-42.55"/>
</g>
<!-- ClassController_4&#45;&gt;ClassModel_4 -->
<g id="edge40" class="edge">
<title>ClassController_4&#45;&gt;ClassModel_4</title>
<path fill="none" stroke="#2f5d8a" d="M384.76,-83.8C392.91,-83.8 464.42,-83.8 492.11,-83.8"/>
<polygon fill="#2f5d8a" stroke="#2f5d8a" points="492.31,-87.3 502.31,-83.8 492.31,-80.3 492.31,-87.3"/>
<text text-anchor="middle" x="443.5" y="-89.8" font-family="Arial" font-size="10.00">5. Xóa hoặc từ chối</text>
</g>
<!-- ClassController_5 -->
<g id="node33" class="node">
<title>ClassController_5</title>
<ellipse fill="#f5faff" stroke="transparent" cx="384" cy="-42.08" rx="0.36" ry="0.36"/>
</g>
<!-- ClassController_4&#45;&gt;ClassController_5 -->
<g id="edge20" class="edge">
<title>ClassController_4&#45;&gt;ClassController_5</title>
<path fill="none" stroke="#9a9a9a" stroke-dasharray="5,2" d="M384,-83.32C384,-80.99 384,-44.81 384,-42.55"/>
</g>
<!-- EnrollmentModel_5 -->
<g id="node34" class="node">
<title>EnrollmentModel_5</title>
<ellipse fill="#f5faff" stroke="transparent" cx="268" cy="-42.08" rx="0.36" ry="0.36"/>
</g>
<!-- EnrollmentModel_4&#45;&gt;EnrollmentModel_5 -->
<g id="edge27" class="edge">
<title>EnrollmentModel_4&#45;&gt;EnrollmentModel_5</title>
<path fill="none" stroke="#9a9a9a" stroke-dasharray="5,2" d="M268,-83.32C268,-80.99 268,-44.81 268,-42.55"/>
</g>
<!-- ClassModel_5 -->
<g id="node35" class="node">
<title>ClassModel_5</title>
<ellipse fill="#f5faff" stroke="transparent" cx="306" cy="-42.08" rx="0.36" ry="0.36"/>
</g>
<!-- ClassModel_4&#45;&gt;ClassModel_5 -->
<g id="edge34" class="edge">
<title>ClassModel_4&#45;&gt;ClassModel_5</title>
<path fill="none" stroke="#9a9a9a" stroke-dasharray="5,2" d="M502.86,-83.41C496.99,-82.19 311.92,-43.67 306.14,-42.47"/>
</g>
<!-- Admin_6 -->
<g id="node36" class="node">
<title>Admin_6</title>
<ellipse fill="#f5faff" stroke="transparent" cx="27" cy="-0.36" rx="0.36" ry="0.36"/>
</g>
<!-- Admin_5&#45;&gt;Admin_6 -->
<g id="edge7" class="edge">
<title>Admin_5&#45;&gt;Admin_6</title>
<path fill="none" stroke="#9a9a9a" stroke-dasharray="5,2" d="M27,-41.6C27,-39.27 27,-3.09 27,-0.83"/>
</g>
<!-- Frontend_6 -->
<g id="node37" class="node">
<title>Frontend_6</title>
<ellipse fill="#f5faff" stroke="transparent" cx="232" cy="-0.36" rx="0.36" ry="0.36"/>
</g>
<!-- Frontend_5&#45;&gt;Frontend_6 -->
<g id="edge14" class="edge">
<title>Frontend_5&#45;&gt;Frontend_6</title>
<path fill="none" stroke="#9a9a9a" stroke-dasharray="5,2" d="M228.01,-41.6C228.24,-39.27 231.77,-3.09 231.99,-0.83"/>
</g>
<!-- ClassController_6 -->
<g id="node38" class="node">
<title>ClassController_6</title>
<ellipse fill="#f5faff" stroke="transparent" cx="154" cy="-0.36" rx="0.36" ry="0.36"/>
</g>
<!-- ClassController_5&#45;&gt;ClassController_6 -->
<g id="edge21" class="edge">
<title>ClassController_5&#45;&gt;ClassController_6</title>
<path fill="none" stroke="#9a9a9a" stroke-dasharray="5,2" d="M383.83,-41.69C376.98,-40.47 160.91,-1.95 154.16,-0.75"/>
</g>
<!-- EnrollmentModel_6 -->
<g id="node39" class="node">
<title>EnrollmentModel_6</title>
<ellipse fill="#f5faff" stroke="transparent" cx="268" cy="-0.36" rx="0.36" ry="0.36"/>
</g>
<!-- EnrollmentModel_5&#45;&gt;EnrollmentModel_6 -->
<g id="edge28" class="edge">
<title>EnrollmentModel_5&#45;&gt;EnrollmentModel_6</title>
<path fill="none" stroke="#9a9a9a" stroke-dasharray="5,2" d="M268,-41.6C268,-39.27 268,-3.09 268,-0.83"/>
</g>
<!-- ClassModel_5&#45;&gt;ClassController_5 -->
<g id="edge41" class="edge">
<title>ClassModel_5&#45;&gt;ClassController_5</title>
<path fill="none" stroke="#2f5d8a" d="M306.5,-42.08C311.52,-42.08 353.22,-42.08 373.29,-42.08"/>
<polygon fill="#2f5d8a" stroke="#2f5d8a" points="373.55,-45.58 383.55,-42.08 373.55,-38.58 373.55,-45.58"/>
<text text-anchor="middle" x="345" y="-48.08" font-family="Arial" font-size="10.00">6. Kết quả</text>
</g>
<!-- ClassModel_6 -->
<g id="node40" class="node">
<title>ClassModel_6</title>
<ellipse fill="#f5faff" stroke="transparent" cx="307" cy="-0.36" rx="0.36" ry="0.36"/>
</g>
<!-- ClassModel_5&#45;&gt;ClassModel_6 -->
<g id="edge35" class="edge">
<title>ClassModel_5&#45;&gt;ClassModel_6</title>
<path fill="none" stroke="#9a9a9a" stroke-dasharray="5,2" d="M306,-41.6C306.06,-39.27 306.94,-3.09 307,-0.83"/>
</g>
<!-- ClassController_6&#45;&gt;Frontend_6 -->
<g id="edge42" class="edge">
<title>ClassController_6&#45;&gt;Frontend_6</title>
<path fill="none" stroke="#2f5d8a" d="M154.5,-0.36C159.52,-0.36 201.22,-0.36 221.29,-0.36"/>
<polygon fill="#2f5d8a" stroke="#2f5d8a" points="221.55,-3.86 231.55,-0.36 221.55,3.14 221.55,-3.86"/>
<text text-anchor="middle" x="193" y="-6.36" font-family="Arial" font-size="10.00">7. 200/409</text>
</g>
</g>
</svg>
